Results
version=1
nRows=4
nColumns=211
inDegrees=yes
endheader
time	/jointset/ground_platform/platform_rx/value	/jointset/ground_platform/platform_rx/speed	/jointset/ground_platform/platform_ry/value	/jointset/ground_platform/platform_ry/speed	/jointset/ground_platform/platform_rz/value	/jointset/ground_platform/platform_rz/speed	/jointset/ground_platform/platform_ty/value	/jointset/ground_platform/platform_ty/speed	/jointset/ground_pelvis/pelvis_tilt/value	/jointset/ground_pelvis/pelvis_tilt/speed	/jointset/ground_pelvis/pelvis_list/value	/jointset/ground_pelvis/pelvis_list/speed	/jointset/ground_pelvis/pelvis_rotation/value	/jointset/ground_pelvis/pelvis_rotation/speed	/jointset/ground_pelvis/pelvis_tx/value	/jointset/ground_pelvis/pelvis_tx/speed	/jointset/ground_pelvis/pelvis_ty/value	/jointset/ground_pelvis/pelvis_ty/speed	/jointset/ground_pelvis/pelvis_tz/value	/jointset/ground_pelvis/pelvis_tz/speed	/jointset/hip_r/hip_flexion_r/value	/jointset/hip_r/hip_flexion_r/speed	/jointset/hip_r/hip_adduction_r/value	/jointset/hip_r/hip_adduction_r/speed	/jointset/hip_r/hip_rotation_r/value	/jointset/hip_r/hip_rotation_r/speed	/jointset/walker_knee_r/knee_angle_r/value	/jointset/walker_knee_r/knee_angle_r/speed	/jointset/patellofemoral_r/knee_angle_r_beta/value	/jointset/patellofemoral_r/knee_angle_r_beta/speed	/jointset/ankle_r/ankle_angle_r/value	/jointset/ankle_r/ankle_angle_r/speed	/jointset/subtalar_r/subtalar_angle_r/value	/jointset/subtalar_r/subtalar_angle_r/speed	/jointset/mtp_r/mtp_angle_r/value	/jointset/mtp_r/mtp_angle_r/speed	/jointset/hip_l/hip_flexion_l/value	/jointset/hip_l/hip_flexion_l/speed	/jointset/hip_l/hip_adduction_l/value	/jointset/hip_l/hip_adduction_l/speed	/jointset/hip_l/hip_rotation_l/value	/jointset/hip_l/hip_rotation_l/speed	/jointset/walker_knee_l/knee_angle_l/value	/jointset/walker_knee_l/knee_angle_l/speed	/jointset/patellofemoral_l/knee_angle_l_beta/value	/jointset/patellofemoral_l/knee_angle_l_beta/speed	/jointset/socket/socket_flexion/value	/jointset/socket/socket_flexion/speed	/jointset/socket/socket_adduction/value	/jointset/socket/socket_adduction/speed	/jointset/socket/socket_rotation/value	/jointset/socket/socket_rotation/speed	/jointset/socket/socket_tx/value	/jointset/socket/socket_tx/speed	/jointset/socket/socket_ty/value	/jointset/socket/socket_ty/speed	/jointset/socket/socket_tz/value	/jointset/socket/socket_tz/speed	/jointset/pros_ankle/pros_ankle_rx/value	/jointset/pros_ankle/pros_ankle_rx/speed	/jointset/pros_ankle/pros_ankle_ry/value	/jointset/pros_ankle/pros_ankle_ry/speed	/jointset/pros_ankle/pros_ankle_rz/value	/jointset/pros_ankle/pros_ankle_rz/speed	/jointset/pros_ankle/pros_ankle_tx/value	/jointset/pros_ankle/pros_ankle_tx/speed	/jointset/pros_ankle/pros_ankle_ty/value	/jointset/pros_ankle/pros_ankle_ty/speed	/jointset/pros_ankle/pros_ankle_tz/value	/jointset/pros_ankle/pros_ankle_tz/speed	/jointset/foot_flex/foot_flex/value	/jointset/foot_flex/foot_flex/speed	/jointset/back/lumbar_extension/value	/jointset/back/lumbar_extension/speed	/jointset/back/lumbar_bending/value	/jointset/back/lumbar_bending/speed	/jointset/back/lumbar_rotation/value	/jointset/back/lumbar_rotation/speed	/jointset/acromial_r/arm_flex_r/value	/jointset/acromial_r/arm_flex_r/speed	/jointset/acromial_r/arm_add_r/value	/jointset/acromial_r/arm_add_r/speed	/jointset/acromial_r/arm_rot_r/value	/jointset/acromial_r/arm_rot_r/speed	/jointset/elbow_r/elbow_flex_r/value	/jointset/elbow_r/elbow_flex_r/speed	/jointset/radioulnar_r/pro_sup_r/value	/jointset/radioulnar_r/pro_sup_r/speed	/jointset/radius_hand_r/wrist_flex_r/value	/jointset/radius_hand_r/wrist_flex_r/speed	/jointset/radius_hand_r/wrist_dev_r/value	/jointset/radius_hand_r/wrist_dev_r/speed	/jointset/acromial_l/arm_flex_l/value	/jointset/acromial_l/arm_flex_l/speed	/jointset/acromial_l/arm_add_l/value	/jointset/acromial_l/arm_add_l/speed	/jointset/acromial_l/arm_rot_l/value	/jointset/acromial_l/arm_rot_l/speed	/jointset/elbow_l/elbow_flex_l/value	/jointset/elbow_l/elbow_flex_l/speed	/jointset/radioulnar_l/pro_sup_l/value	/jointset/radioulnar_l/pro_sup_l/speed	/jointset/radius_hand_l/wrist_flex_l/value	/jointset/radius_hand_l/wrist_flex_l/speed	/jointset/radius_hand_l/wrist_dev_l/value	/jointset/radius_hand_l/wrist_dev_l/speed	/forceset/addbrev_r/activation	/forceset/addlong_r/activation	/forceset/addlong_r/fiber_length	/forceset/addmagDist_r/activation	/forceset/addmagIsch_r/activation	/forceset/addmagIsch_r/fiber_length	/forceset/addmagMid_r/activation	/forceset/addmagProx_r/activation	/forceset/bflh_r/activation	/forceset/bflh_r/fiber_length	/forceset/bfsh_r/activation	/forceset/edl_r/activation	/forceset/edl_r/fiber_length	/forceset/ehl_r/activation	/forceset/ehl_r/fiber_length	/forceset/fdl_r/activation	/forceset/fdl_r/fiber_length	/forceset/fhl_r/activation	/forceset/fhl_r/fiber_length	/forceset/gaslat_r/activation	/forceset/gaslat_r/fiber_length	/forceset/gasmed_r/activation	/forceset/gasmed_r/fiber_length	/forceset/glmax1_r/activation	/forceset/glmax2_r/activation	/forceset/glmax3_r/activation	/forceset/glmed1_r/activation	/forceset/glmed2_r/activation	/forceset/glmed3_r/activation	/forceset/glmin1_r/activation	/forceset/glmin2_r/activation	/forceset/glmin3_r/activation	/forceset/glmin3_r/fiber_length	/forceset/grac_r/activation	/forceset/iliacus_r/activation	/forceset/perbrev_r/activation	/forceset/perbrev_r/fiber_length	/forceset/perlong_r/activation	/forceset/perlong_r/fiber_length	/forceset/piri_r/activation	/forceset/piri_r/fiber_length	/forceset/psoas_r/activation	/forceset/recfem_r/activation	/forceset/recfem_r/fiber_length	/forceset/sart_r/activation	/forceset/semimem_r/activation	/forceset/semimem_r/fiber_length	/forceset/semiten_r/activation	/forceset/semiten_r/fiber_length	/forceset/soleus_r/activation	/forceset/soleus_r/fiber_length	/forceset/tfl_r/activation	/forceset/tfl_r/fiber_length	/forceset/tibant_r/activation	/forceset/tibant_r/fiber_length	/forceset/tibpost_r/activation	/forceset/tibpost_r/fiber_length	/forceset/vasint_r/activation	/forceset/vasint_r/fiber_length	/forceset/vaslat_r/activation	/forceset/vaslat_r/fiber_length	/forceset/vasmed_r/activation	/forceset/vasmed_r/fiber_length	/forceset/addbrev_l/activation	/forceset/addlong_l/activation	/forceset/addlong_l/fiber_length	/forceset/addmagDist_l/activation	/forceset/addmagIsch_l/activation	/forceset/addmagIsch_l/fiber_length	/forceset/addmagMid_l/activation	/forceset/addmagProx_l/activation	/forceset/bflh_l/activation	/forceset/bflh_l/fiber_length	/forceset/bfsh_l/activation	/forceset/glmax1_l/activation	/forceset/glmax2_l/activation	/forceset/glmax3_l/activation	/forceset/glmed1_l/activation	/forceset/glmed2_l/activation	/forceset/glmed3_l/activation	/forceset/glmin1_l/activation	/forceset/glmin2_l/activation	/forceset/glmin3_l/activation	/forceset/glmin3_l/fiber_length	/forceset/grac_l/activation	/forceset/iliacus_l/activation	/forceset/piri_l/activation	/forceset/piri_l/fiber_length	/forceset/psoas_l/activation	/forceset/recfem_l/activation	/forceset/recfem_l/fiber_length	/forceset/sart_l/activation	/forceset/semimem_l/activation	/forceset/semimem_l/fiber_length	/forceset/semiten_l/activation	/forceset/semiten_l/fiber_length	/forceset/tfl_l/activation	/forceset/tfl_l/fiber_length	/forceset/vasint_l/activation	/forceset/vasint_l/fiber_length	/forceset/vaslat_l/activation	/forceset/vaslat_l/fiber_length	/forceset/vasmed_l/activation	/forceset/vasmed_l/fiber_length
      0.00000000	     20.00000000	      0.00000000	      0.00000000	      0.00000000	      0.00000000	      0.00000000	      0.25000000	      0.00000000	      0.00000000	      0.00000000	      0.00000000	      0.00000000	      0.00000000	      0.00000000	      0.00000000	      0.00000000	      1.83000000	      0.00000000	      0.00000000	      0.00000000	      0.00000002	      0.00000000	      0.00000002	      0.00000000	      0.00000000	      0.00000000	      0.00217003	      0.00000000	      0.00003787	      0.00000000	      0.00000002	      0.00000000	      0.00000000	      0.00000000	      0.00000000	      0.00000000	      0.00000002	      0.00000000	      0.00000002	      0.00000000	      0.00000000	      0.00000000	      0.00217003	      0.00000000	      0.00003787	      0.00000000	      0.00000000	      0.00000000	      0.00000000	      0.00000000	      0.00000000	      0.00000000	      0.00000000	      0.00000000	      0.00000000	      0.00000000	      0.00000000	      0.00000000	     -0.00000000	      0.00000000	     -0.00000000	      0.00000000	      0.00000000	      0.00000000	      0.00000000	      0.00000000	      0.00000000	      0.00000000	      0.00000000	      0.00000000	      0.00000000	      0.00000000	      0.00000000	      0.00000000	      0.00000000	      0.00000000	      0.00000000	      0.00000000	      0.00000000	      0.00000000	     -0.00000001	      0.00000000	      0.00000000	      0.00000000	      0.00217007	      0.00000000	      0.00217007	      0.00000000	      0.00000000	      0.00000000	      0.00000000	      0.00000000	      0.00000000	      0.00000000	     -0.00000001	      0.00000000	      0.00000000	      0.00000000	      0.00217007	      0.00000000	      0.00217007	      0.00000000	      0.00000000	      0.00000000	      0.00000000	      0.00000000	      0.01000000	      0.01000000	      0.11285483	      0.01000000	      0.01000000	      0.12528384	      0.01000000	      0.01000000	      0.01000000	      0.08967289	      0.01000000	      0.01000000	      0.06923260	      0.01000000	      0.07815643	      0.01000000	      0.04540190	      0.01000000	      0.05137227	      0.01000000	      0.07016945	      0.01000000	      0.05690578	      0.01000000	      0.01000000	      0.01000000	      0.01000000	      0.01000000	      0.01000000	      0.01000000	      0.01000000	      0.01000000	      0.03799590	      0.01000000	      0.01000000	      0.01000000	      0.04853813	      0.01000000	      0.05409332	      0.01000000	      0.02336894	      0.01000000	      0.01000000	      0.06467727	      0.01000000	      0.01000000	      0.06548798	      0.01000000	      0.21099125	      0.01000000	      0.04795166	      0.01000000	      0.09710172	      0.01000000	      0.06619698	      0.01000000	      0.03920036	      0.01000000	      0.07971165	      0.01000000	      0.07868693	      0.01000000	      0.08036437	      0.01000000	      0.01000000	      0.11285483	      0.01000000	      0.01000000	      0.12528384	      0.01000000	      0.01000000	      0.01000000	      0.08967289	      0.01000000	      0.01000000	      0.01000000	      0.01000000	      0.01000000	      0.01000000	      0.01000000	      0.01000000	      0.01000000	      0.01000000	      0.03799590	      0.01000000	      0.01000000	      0.01000000	      0.02336894	      0.01000000	      0.01000000	      0.06467727	      0.01000000	      0.01000000	      0.06548798	      0.01000000	      0.21099125	      0.01000000	      0.09710172	      0.01000000	      0.07971165	      0.01000000	      0.07868693	      0.01000000	      0.08036437
      0.00100000	     20.00000000	     -0.00000000	      0.00000000	      0.00000000	      0.00000000	      0.00000000	      0.25000000	     -0.00000000	      0.00104382	      2.07439475	     -0.00044419	     -0.88339031	      0.00012765	      0.25252651	      0.00000068	      0.00134458	      1.82999710	     -0.00581706	     -0.00000025	     -0.00050493	     -0.00219096	     -4.35528948	      0.00045644	      0.90769619	     -0.00163532	     -3.25588472	     -0.00128594	     -6.87626309	     -0.00002244	     -0.12001343	     -0.02846070	    -56.67257418	     -0.00000000	     -0.00000000	     -0.00000000	     -0.00000000	     -0.00183762	     -3.65387975	     -0.00044933	     -0.89282555	     -0.00061947	     -1.23744563	     -0.00105215	     -6.41453098	     -0.00001836	     -0.11195469	     -0.00291351	     -5.80144064	     -0.00013902	     -0.27471524	     -0.00137023	     -2.72923764	     -0.00000000	     -0.00000000	     -0.00000055	     -0.00108589	      0.00000000	      0.00000000	      0.00000000	      0.00000000	      0.00000000	      0.00000000	     -0.00000000	      0.00000000	      0.00000000	      0.00000000	     -0.00000000	     -0.00000000	     -0.00000000	     -0.00000000	      0.00058210	      1.15939440	     -0.00113779	     -2.26108171	      0.00051830	      1.03095128	     -0.00011378	     -0.22489254	      0.00012956	      0.25732613	     -0.00009724	     -0.19362432	     -0.00002240	     -0.04460980	      0.00213166	     -0.07615075	      0.00220124	      0.06197758	     -0.00000000	     -0.00000000	      0.00000000	      0.00000000	      0.00014746	      0.29297178	      0.00010565	      0.21034130	      0.00001468	      0.02922379	      0.00211233	     -0.11463191	      0.00215391	     -0.03225298	     -0.00000000	     -0.00000000	     -0.00000000	     -0.00000000	      0.00987125	      0.00987125	      0.11285531	      0.00987125	      0.00987125	      0.12528337	      0.00987125	      0.00987125	      0.00987125	      0.08967283	      0.00987125	      0.00987125	      0.06923416	      0.00987125	      0.07815863	      0.00987125	      0.04540169	      0.00987125	      0.05137179	      0.00987125	      0.07016720	      0.00987125	      0.05690415	      0.00987125	      0.00987125	      0.00987125	      0.00987125	      0.00987125	      0.00987125	      0.00987125	      0.00987125	      0.00987125	      0.03799575	      0.00987125	      0.00987125	      0.00987125	      0.04853766	      0.00987125	      0.05409295	      0.00987125	      0.02336884	      0.00987125	      0.00987125	      0.06467715	      0.00987125	      0.00987125	      0.06548799	      0.00987125	      0.21099134	      0.00987125	      0.04794976	      0.00987125	      0.09710177	      0.00987125	      0.06619969	      0.00987125	      0.03920006	      0.00987125	      0.07971106	      0.00987125	      0.07868644	      0.00987125	      0.08036378	      0.00987125	      0.00987125	      0.11285549	      0.00987125	      0.00987125	      0.12528357	      0.00987125	      0.00987125	      0.00987125	      0.08967291	      0.00987125	      0.00987125	      0.00987125	      0.00987125	      0.00987125	      0.00987125	      0.00987125	      0.00987125	      0.00987125	      0.00987125	      0.03799567	      0.00987125	      0.00987125	      0.00987125	      0.02336886	      0.00987125	      0.00987125	      0.06467713	      0.00987125	      0.00987125	      0.06548803	      0.00987125	      0.21099153	      0.00987125	      0.09710167	      0.00987125	      0.07971110	      0.00987125	      0.07868647	      0.00987125	      0.08036382
      0.00245910	     20.00000000	     -0.00000000	      0.00000000	      0.00000000	      0.00000000	      0.00000000	      0.25000000	      0.00000000	      0.00616931	      4.90538366	     -0.00262002	     -2.07289740	      0.00073531	      0.56603978	      0.00000400	      0.00317171	      1.82998221	     -0.01468341	     -0.00000149	     -0.00116166	     -0.01293926	    -10.26968761	      0.00269368	      2.13323724	     -0.00970549	     -7.73707358	     -0.01826252	    -16.21291189	     -0.00031874	     -0.28296869	     -0.16861701	   -133.99905737	      0.00000000	      0.00000000	     -0.00000000	     -0.00000000	     -0.01087870	     -8.66309753	     -0.00264058	     -2.08069761	     -0.00374467	     -3.05132226	     -0.01696643	    -15.27911510	     -0.00029612	     -0.26667087	     -0.01731132	    -13.82520985	     -0.00080163	     -0.61976132	     -0.00817002	     -6.55612944	     -0.00000000	     -0.00000000	     -0.00000325	     -0.00260599	      0.00000000	      0.00000000	      0.00000000	      0.00000000	      0.00000000	     -0.00000000	     -0.00000000	     -0.00000000	      0.00000000	     -0.00000000	     -0.00000000	     -0.00000000	     -0.00000000	     -0.00000000	      0.00345885	      2.76101692	     -0.00672488	     -5.34765936	      0.00305910	      2.42188748	     -0.00065289	     -0.50029713	      0.00076585	      0.60981381	     -0.00057606	     -0.45774133	     -0.00013272	     -0.10545859	      0.00194340	     -0.18073551	      0.00235449	      0.14669012	     -0.00000000	     -0.00000000	      0.00000000	      0.00000000	      0.00087190	      0.69408489	      0.00062580	      0.49735805	      0.00008694	      0.06909582	      0.00182891	     -0.27170763	      0.00207413	     -0.07610370	      0.00000000	      0.00000000	     -0.00000000	     -0.00000000	      0.00968339	      0.00968339	      0.11285978	      0.00968339	      0.00968339	      0.12527877	      0.00968339	      0.00968339	      0.00968339	      0.08967217	      0.00968339	      0.00968339	      0.06925579	      0.00968339	      0.07818907	      0.00968339	      0.04539894	      0.00968339	      0.05136584	      0.00968339	      0.07013987	      0.00968339	      0.05688346	      0.00968339	      0.00968339	      0.00968339	      0.00968339	      0.00968339	      0.00968339	      0.00968339	      0.00968339	      0.00968339	      0.03799431	      0.00968339	      0.00968339	      0.00968339	      0.04853242	      0.00968339	      0.05408845	      0.00968339	      0.02336764	      0.00968339	      0.00968339	      0.06467565	      0.00968339	      0.00968339	      0.06548819	      0.00968339	      0.21099212	      0.00968339	      0.04792569	      0.00968339	      0.09710234	      0.00968339	      0.06624144	      0.00968339	      0.03919632	      0.00968339	      0.07970483	      0.00968339	      0.07868122	      0.00968339	      0.08035788	      0.00968339	      0.00968339	      0.11286160	      0.00968339	      0.00968339	      0.12528095	      0.00968339	      0.00968339	      0.00968339	      0.08967322	      0.00968339	      0.00968339	      0.00968339	      0.00968339	      0.00968339	      0.00968339	      0.00968339	      0.00968339	      0.00968339	      0.00968339	      0.03799337	      0.00968339	      0.00968339	      0.00968339	      0.02336784	      0.00968339	      0.00968339	      0.06467541	      0.00968339	      0.00968339	      0.06548863	      0.00968339	      0.21099399	      0.00968339	      0.09710113	      0.00968339	      0.07970528	      0.00968339	      0.07868159	      0.00968339	      0.08035830
      0.00354659	     20.00000000	     -0.00000000	      0.00000000	     -0.00000000	      0.00000000	      0.00000000	      0.25000000	      0.00000000	      0.01256348	      6.82699414	     -0.00530353	     -2.84530550	      0.00144949	      0.73871707	      0.00000812	      0.00439709	      1.82996247	     -0.02168200	     -0.00000297	     -0.00155879	     -0.02629431	    -14.22608748	      0.00545869	      2.93537507	     -0.01979807	    -10.78057400	     -0.03931806	    -22.39703163	     -0.00068623	     -0.39090194	     -0.34274427	   -185.28993407	      0.00000000	      0.00000000	     -0.00000000	      0.00000000	     -0.02218433	    -12.08355958	     -0.00532414	     -2.83511256	     -0.00780946	     -4.42775400	     -0.03693994	    -21.37813716	     -0.00064472	     -0.37311888	     -0.03538450	    -19.34359937	     -0.00158821	     -0.81799903	     -0.01678365	     -9.26406487	     -0.00000000	     -0.00000000	     -0.00000667	     -0.00367935	      0.00000000	      0.00000000	      0.00000000	      0.00000000	     -0.00000000	     -0.00000000	     -0.00000000	      0.00000000	      0.00000000	      0.00000000	     -0.00000000	     -0.00000000	     -0.00000000	     -0.00000000	      0.00706519	      3.85641199	     -0.01369652	     -7.44457649	      0.00619619	      3.32804254	     -0.00128131	     -0.64711322	      0.00156248	      0.85243836	     -0.00117075	     -0.63262162	     -0.00026971	     -0.14570396	      0.00170638	     -0.25463798	      0.00254561	      0.20392690	     -0.00000000	     -0.00000000	      0.00000000	      0.00000000	      0.00177804	      0.96895232	      0.00127225	      0.68802729	      0.00017677	      0.09563931	      0.00147369	     -0.38041276	      0.00197573	     -0.10414413	      0.00000000	      0.00000000	     -0.00000000	     -0.00000000	      0.00954338	      0.00954338	      0.11286660	      0.00954338	      0.00954338	      0.12527157	      0.00954338	      0.00954338	      0.00954338	      0.08967096	      0.00954338	      0.00954338	      0.06931118	      0.00954338	      0.07826105	      0.00954338	      0.04539357	      0.00954338	      0.05135432	      0.00954338	      0.07008482	      0.00954338	      0.05683962	      0.00954338	      0.00954338	      0.00954338	      0.00954338	      0.00954338	      0.00954338	      0.00954338	      0.00954338	      0.00954338	      0.03799200	      0.00954338	      0.00954338	      0.00954338	      0.04852319	      0.00954338	      0.05407992	      0.00954338	      0.02336539	      0.00954338	      0.00954338	      0.06467278	      0.00954338	      0.00954338	      0.06548856	      0.00954338	      0.21099329	      0.00954338	      0.04787391	      0.00954338	      0.09710340	      0.00954338	      0.06633789	      0.00954338	      0.03918913	      0.00954338	      0.07969438	      0.00954338	      0.07867247	      0.00954338	      0.08034829	      0.00954338	      0.00954338	      0.11287095	      0.00954338	      0.00954338	      0.12527681	      0.00954338	      0.00954338	      0.00954338	      0.08967377	      0.00954338	      0.00954338	      0.00954338	      0.00954338	      0.00954338	      0.00954338	      0.00954338	      0.00954338	      0.00954338	      0.00954338	      0.03798972	      0.00954338	      0.00954338	      0.00954338	      0.02336594	      0.00954338	      0.00954338	      0.06467211	      0.00954338	      0.00954338	      0.06548979	      0.00954338	      0.21099772	      0.00954338	      0.09710011	      0.00954338	      0.07969543	      0.00954338	      0.07867335	      0.00954338	      0.08034926
